# xmcd
#
# Track frame offsets:
# 150
# 19205
# 37529
# 56368
# 82333
# 101353
# 119475
# 137416
# 157544
# 174691
#
# Disc length: 2595 seconds
#
#
# Revision: 2
# Processed by: cddbd v1.5.2PL0 Copyright (c) Steve Scherf et al.
# Submitted via: FreeRIP 2.945 
#
DISCID=6f0a210a
DTITLE=The O'Jays - Love Fever
DYEAR=1900
DGENRE=R&B
TTITLE0=Can't Slow Down
TTITLE1=Dollar Bill
TTITLE2=All Eyes on Africa
TTITLE3=Just Another Lonely Night
TTITLE4=I Want to Be With You Tonight
TTITLE5=Love Fever
TTITLE6=I Love America
TTITLE7=What a Woman
TTITLE8=We're Still Together
TTITLE9=What Good Are These Arms of Mine
EXTD=
EXTT0=
EXTT1=
EXTT2=
EXTT3=
EXTT4=
EXTT5=
EXTT6=
EXTT7=
EXTT8=
EXTT9=
PLAYORDER=
